<svg version="1.1" xmlns="http://www.w3.org/2000/svg" xmlns:xlink="http://www.w3.org/1999/xlink" width="1004" height="1116"><defs/><g><g transform="translate(-118,-46) scale(1,1)"><path fill="#C0C0C0" stroke="none" d="M 135 73 L 1108 73 L 1108 1158 L 135 1158" opacity="0.2"/></g><g transform="translate(-118,-46) scale(1,1)"><path fill="#C0C0C0" stroke="none" d="M 135 73 L 145 63 L 1118 63 L 1108 73" opacity="0.2"/></g><g transform="translate(-118,-46) scale(1,1)"><path fill="#C0C0C0" stroke="none" d="M 1118 63 L 1108 73 L 1108 1158 L 1118 1148" opacity="0.2"/></g><g transform="translate(-118,-46) scale(1,1)"><path fill="#6dceff" stroke="none" d="M 128 66 L 1101 66 L 1101 1151 L 128 1151"/></g><g transform="translate(-118,-46) scale(1,1)"><path fill="#6dceff" stroke="none" d="M 128 66 L 138 56 L 1111 56 L 1101 66"/></g><g transform="translate(-118,-46) scale(1,1)"><path fill="#6dceff" stroke="none" d="M 1111 56 L 1101 66 L 1101 1151 L 1111 1141"/></g><g transform="translate(-118,-46) scale(1,1)"><path fill="none" stroke="#000000" d="M 128 66 L 1101 66 L 1101 1151 L 128 1151 L 128 66" stroke-miterlimit="10"/></g><g transform="translate(-118,-46) scale(1,1)"><path fill="none" stroke="#000000" d="M 128 66 L 138 56 L 1111 56 L 1101 66 L 128 66" stroke-miterlimit="10"/></g><g transform="translate(-118,-46) scale(1,1)"><path fill="none" stroke="#000000" d="M 1111 56 L 1101 66 L 1101 1151 L 1111 1141 L 1111 56" stroke-miterlimit="10"/></g><g transform="translate(-118,-46) scale(1,1)"><g><path fill="none" stroke="none"/><text fill="#000000" stroke="none" font-family="Arial" font-size="13px" font-style="normal" font-weight="bold" text-decoration="none" x="595.490478515625" y="85.5">xampp</text></g></g><g transform="translate(-118,-46) scale(1,1)"><path fill="#C0C0C0" stroke="none" d="M 159 105 L 1076 105 L 1076 1142 L 159 1142" opacity="0.2"/></g><g transform="translate(-118,-46) scale(1,1)"><path fill="#C0C0C0" stroke="none" d="M 159 105 L 169 95 L 1086 95 L 1076 105" opacity="0.2"/></g><g transform="translate(-118,-46) scale(1,1)"><path fill="#C0C0C0" stroke="none" d="M 1086 95 L 1076 105 L 1076 1142 L 1086 1132" opacity="0.2"/></g><g transform="translate(-118,-46) scale(1,1)"><path fill="#ffffff" stroke="none" d="M 152 98 L 1069 98 L 1069 1135 L 152 1135"/></g><g transform="translate(-118,-46) scale(1,1)"><path fill="#ffffff" stroke="none" d="M 152 98 L 162 88 L 1079 88 L 1069 98"/></g><g transform="translate(-118,-46) scale(1,1)"><path fill="#ffffff" stroke="none" d="M 1079 88 L 1069 98 L 1069 1135 L 1079 1125"/></g><g transform="translate(-118,-46) scale(1,1)"><path fill="none" stroke="#000000" d="M 152 98 L 1069 98 L 1069 1135 L 152 1135 L 152 98" stroke-miterlimit="10"/></g><g transform="translate(-118,-46) scale(1,1)"><path fill="none" stroke="#000000" d="M 152 98 L 162 88 L 1079 88 L 1069 98 L 152 98" stroke-miterlimit="10"/></g><g transform="translate(-118,-46) scale(1,1)"><path fill="none" stroke="#000000" d="M 1079 88 L 1069 98 L 1069 1135 L 1079 1125 L 1079 88" stroke-miterlimit="10"/></g><g transform="translate(-118,-46) scale(1,1)"><g><path fill="none" stroke="none"/><text fill="#000000" stroke="none" font-family="Arial" font-size="13px" font-style="normal" font-weight="bold" text-decoration="none" x="584.260498046875" y="117.5">find-code</text></g></g><g transform="translate(-118,-46) scale(1,1)"><path fill="#C0C0C0" stroke="none" d="M 263 249 L 332 249 L 332 310 L 263 310" opacity="0.2"/></g><g transform="translate(-118,-46) scale(1,1)"><path fill="#C0C0C0" stroke="none" d="M 263 249 L 273 239 L 342 239 L 332 249" opacity="0.2"/></g><g transform="translate(-118,-46) scale(1,1)"><path fill="#C0C0C0" stroke="none" d="M 342 239 L 332 249 L 332 310 L 342 300" opacity="0.2"/></g><g transform="translate(-118,-46) scale(1,1)"><path fill="#00d600" stroke="none" d="M 256 242 L 325 242 L 325 303 L 256 303"/></g><g transform="translate(-118,-46) scale(1,1)"><path fill="#00d600" stroke="none" d="M 256 242 L 266 232 L 335 232 L 325 242"/></g><g transform="translate(-118,-46) scale(1,1)"><path fill="#00d600" stroke="none" d="M 335 232 L 325 242 L 325 303 L 335 293"/></g><g transform="translate(-118,-46) scale(1,1)"><path fill="none" stroke="#000000" d="M 256 242 L 325 242 L 325 303 L 256 303 L 256 242" stroke-miterlimit="10"/></g><g transform="translate(-118,-46) scale(1,1)"><path fill="none" stroke="#000000" d="M 256 242 L 266 232 L 335 232 L 325 242 L 256 242" stroke-miterlimit="10"/></g><g transform="translate(-118,-46) scale(1,1)"><path fill="none" stroke="#000000" d="M 335 232 L 325 242 L 325 303 L 335 293 L 335 232" stroke-miterlimit="10"/></g><g transform="translate(-118,-46) scale(1,1)"><g><path fill="none" stroke="none"/><text fill="#000000" stroke="none" font-family="Arial" font-size="13px" font-style="normal" font-weight="bold" text-decoration="none" x="282.325927734375" y="261.5">api</text></g></g><g transform="translate(-118,-46) scale(1,1)"><path fill="#C0C0C0" stroke="none" d="M 255 633 L 340 633 L 340 710 L 255 710" opacity="0.2"/></g><g transform="translate(-118,-46) scale(1,1)"><path fill="#C0C0C0" stroke="none" d="M 255 633 L 265 623 L 350 623 L 340 633" opacity="0.2"/></g><g transform="translate(-118,-46) scale(1,1)"><path fill="#C0C0C0" stroke="none" d="M 350 623 L 340 633 L 340 710 L 350 700" opacity="0.2"/></g><g transform="translate(-118,-46) scale(1,1)"><path fill="#00d600" stroke="none" d="M 248 626 L 333 626 L 333 703 L 248 703"/></g><g transform="translate(-118,-46) scale(1,1)"><path fill="#00d600" stroke="none" d="M 248 626 L 258 616 L 343 616 L 333 626"/></g><g transform="translate(-118,-46) scale(1,1)"><path fill="#00d600" stroke="none" d="M 343 616 L 333 626 L 333 703 L 343 693"/></g><g transform="translate(-118,-46) scale(1,1)"><path fill="none" stroke="#000000" d="M 248 626 L 333 626 L 333 703 L 248 703 L 248 626" stroke-miterlimit="10"/></g><g transform="translate(-118,-46) scale(1,1)"><path fill="none" stroke="#000000" d="M 248 626 L 258 616 L 343 616 L 333 626 L 248 626" stroke-miterlimit="10"/></g><g transform="translate(-118,-46) scale(1,1)"><path fill="none" stroke="#000000" d="M 343 616 L 333 626 L 333 703 L 343 693 L 343 616" stroke-miterlimit="10"/></g><g transform="translate(-118,-46) scale(1,1)"><g><path fill="none" stroke="none"/><text fill="#000000" stroke="none" font-family="Arial" font-size="13px" font-style="normal" font-weight="bold" text-decoration="none" x="284.496826171875" y="645.5">lib</text></g></g><g transform="translate(-118,-46) scale(1,1)"><path fill="#C0C0C0" stroke="none" d="M 263 817 L 340 817 L 340 870 L 263 870" opacity="0.2"/></g><g transform="translate(-118,-46) scale(1,1)"><path fill="#C0C0C0" stroke="none" d="M 263 817 L 273 807 L 350 807 L 340 817" opacity="0.2"/></g><g transform="translate(-118,-46) scale(1,1)"><path fill="#C0C0C0" stroke="none" d="M 350 807 L 340 817 L 340 870 L 350 860" opacity="0.2"/></g><g transform="translate(-118,-46) scale(1,1)"><path fill="#00d600" stroke="none" d="M 256 810 L 333 810 L 333 863 L 256 863"/></g><g transform="translate(-118,-46) scale(1,1)"><path fill="#00d600" stroke="none" d="M 256 810 L 266 800 L 343 800 L 333 810"/></g><g transform="translate(-118,-46) scale(1,1)"><path fill="#00d600" stroke="none" d="M 343 800 L 333 810 L 333 863 L 343 853"/></g><g transform="translate(-118,-46) scale(1,1)"><path fill="none" stroke="#000000" d="M 256 810 L 333 810 L 333 863 L 256 863 L 256 810" stroke-miterlimit="10"/></g><g transform="translate(-118,-46) scale(1,1)"><path fill="none" stroke="#000000" d="M 256 810 L 266 800 L 343 800 L 333 810 L 256 810" stroke-miterlimit="10"/></g><g transform="translate(-118,-46) scale(1,1)"><path fill="none" stroke="#000000" d="M 343 800 L 333 810 L 333 863 L 343 853 L 343 800" stroke-miterlimit="10"/></g><g transform="translate(-118,-46) scale(1,1)"><g><path fill="none" stroke="none"/><text fill="#000000" stroke="none" font-family="Arial" font-size="13px" font-style="normal" font-weight="bold" text-decoration="none" x="278.016845703125" y="829.5">public</text></g></g><g transform="translate(-118,-46) scale(1,1)"><path fill="#C0C0C0" stroke="none" d="M 239 905 L 1028 905 L 1028 1126 L 239 1126" opacity="0.2"/></g><g transform="translate(-118,-46) scale(1,1)"><path fill="#C0C0C0" stroke="none" d="M 239 905 L 249 895 L 1038 895 L 1028 905" opacity="0.2"/></g><g transform="translate(-118,-46) scale(1,1)"><path fill="#C0C0C0" stroke="none" d="M 1038 895 L 1028 905 L 1028 1126 L 1038 1116" opacity="0.2"/></g><g transform="translate(-118,-46) scale(1,1)"><path fill="#aaaaaa" stroke="none" d="M 232 898 L 1021 898 L 1021 1119 L 232 1119"/></g><g transform="translate(-118,-46) scale(1,1)"><path fill="#aaaaaa" stroke="none" d="M 232 898 L 242 888 L 1031 888 L 1021 898"/></g><g transform="translate(-118,-46) scale(1,1)"><path fill="#aaaaaa" stroke="none" d="M 1031 888 L 1021 898 L 1021 1119 L 1031 1109"/></g><g transform="translate(-118,-46) scale(1,1)"><path fill="none" stroke="#000000" d="M 232 898 L 1021 898 L 1021 1119 L 232 1119 L 232 898" stroke-miterlimit="10"/></g><g transform="translate(-118,-46) scale(1,1)"><path fill="none" stroke="#000000" d="M 232 898 L 242 888 L 1031 888 L 1021 898 L 232 898" stroke-miterlimit="10"/></g><g transform="translate(-118,-46) scale(1,1)"><path fill="none" stroke="#000000" d="M 1031 888 L 1021 898 L 1021 1119 L 1031 1109 L 1031 888" stroke-miterlimit="10"/></g><g transform="translate(-118,-46) scale(1,1)"><g><path fill="none" stroke="none"/><text fill="#000000" stroke="none" font-family="Arial" font-size="13px" font-style="normal" font-weight="bold" text-decoration="none" x="607.12548828125" y="917.5">vendor</text></g></g><g transform="translate(-118,-46) scale(1,1)"><path fill="#C0C0C0" stroke="none" d="M 423 241 L 490.95361328125 241 L 490.95361328125 274 L 423 274" opacity="0.2"/></g><g transform="translate(-118,-46) scale(1,1)"><path fill="#C0C0C0" stroke="none" d="M 423 241 L 433 231 L 500.95361328125 231 L 490.95361328125 241" opacity="0.2"/></g><g transform="translate(-118,-46) scale(1,1)"><path fill="#C0C0C0" stroke="none" d="M 500.95361328125 231 L 490.95361328125 241 L 490.95361328125 274 L 500.95361328125 264" opacity="0.2"/></g><g transform="translate(-118,-46) scale(1,1)"><path fill="#ffffff" stroke="none" d="M 416 234 L 483.95361328125 234 L 483.95361328125 267 L 416 267"/></g><g transform="translate(-118,-46) scale(1,1)"><path fill="#ffffff" stroke="none" d="M 416 234 L 426 224 L 493.95361328125 224 L 483.95361328125 234"/></g><g transform="translate(-118,-46) scale(1,1)"><path fill="#ffffff" stroke="none" d="M 493.95361328125 224 L 483.95361328125 234 L 483.95361328125 267 L 493.95361328125 257"/></g><g transform="translate(-118,-46) scale(1,1)"><path fill="none" stroke="#000000" d="M 416 234 L 483.95361328125 234 L 483.95361328125 267 L 416 267 L 416 234" stroke-miterlimit="10"/></g><g transform="translate(-118,-46) scale(1,1)"><path fill="none" stroke="#000000" d="M 416 234 L 426 224 L 493.95361328125 224 L 483.95361328125 234 L 416 234" stroke-miterlimit="10"/></g><g transform="translate(-118,-46) scale(1,1)"><path fill="none" stroke="#000000" d="M 493.95361328125 224 L 483.95361328125 234 L 483.95361328125 267 L 493.95361328125 257 L 493.95361328125 224" stroke-miterlimit="10"/></g><g transform="translate(-118,-46) scale(1,1)"><g><path fill="none" stroke="none"/><text fill="#000000" stroke="none" font-family="Arial" font-size="13px" font-style="normal" font-weight="bold" text-decoration="none" x="423.74365234375" y="253.5">controller</text></g></g><g transform="translate(-118,-46) scale(1,1)"><path fill="#C0C0C0" stroke="none" d="M 623 241 L 670.72998046875 241 L 670.72998046875 274 L 623 274" opacity="0.2"/></g><g transform="translate(-118,-46) scale(1,1)"><path fill="#C0C0C0" stroke="none" d="M 623 241 L 633 231 L 680.72998046875 231 L 670.72998046875 241" opacity="0.2"/></g><g transform="translate(-118,-46) scale(1,1)"><path fill="#C0C0C0" stroke="none" d="M 680.72998046875 231 L 670.72998046875 241 L 670.72998046875 274 L 680.72998046875 264" opacity="0.2"/></g><g transform="translate(-118,-46) scale(1,1)"><path fill="#ffffff" stroke="none" d="M 616 234 L 663.72998046875 234 L 663.72998046875 267 L 616 267"/></g><g transform="translate(-118,-46) scale(1,1)"><path fill="#ffffff" stroke="none" d="M 616 234 L 626 224 L 673.72998046875 224 L 663.72998046875 234"/></g><g transform="translate(-118,-46) scale(1,1)"><path fill="#ffffff" stroke="none" d="M 673.72998046875 224 L 663.72998046875 234 L 663.72998046875 267 L 673.72998046875 257"/></g><g transform="translate(-118,-46) scale(1,1)"><path fill="none" stroke="#000000" d="M 616 234 L 663.72998046875 234 L 663.72998046875 267 L 616 267 L 616 234" stroke-miterlimit="10"/></g><g transform="translate(-118,-46) scale(1,1)"><path fill="none" stroke="#000000" d="M 616 234 L 626 224 L 673.72998046875 224 L 663.72998046875 234 L 616 234" stroke-miterlimit="10"/></g><g transform="translate(-118,-46) scale(1,1)"><path fill="none" stroke="#000000" d="M 673.72998046875 224 L 663.72998046875 234 L 663.72998046875 267 L 673.72998046875 257 L 673.72998046875 224" stroke-miterlimit="10"/></g><g transform="translate(-118,-46) scale(1,1)"><g><path fill="none" stroke="none"/><text fill="#000000" stroke="none" font-family="Arial" font-size="13px" font-style="normal" font-weight="bold" text-decoration="none" x="622.661376953125" y="253.5">model</text></g></g><g transform="translate(-118,-46) scale(1,1)"><path fill="#C0C0C0" stroke="none" d="M 887 241 L 934.72998046875 241 L 934.72998046875 274 L 887 274" opacity="0.2"/></g><g transform="translate(-118,-46) scale(1,1)"><path fill="#C0C0C0" stroke="none" d="M 887 241 L 897 231 L 944.72998046875 231 L 934.72998046875 241" opacity="0.2"/></g><g transform="translate(-118,-46) scale(1,1)"><path fill="#C0C0C0" stroke="none" d="M 944.72998046875 231 L 934.72998046875 241 L 934.72998046875 274 L 944.72998046875 264" opacity="0.2"/></g><g transform="translate(-118,-46) scale(1,1)"><path fill="#ffffff" stroke="none" d="M 880 234 L 927.72998046875 234 L 927.72998046875 267 L 880 267"/></g><g transform="translate(-118,-46) scale(1,1)"><path fill="#ffffff" stroke="none" d="M 880 234 L 890 224 L 937.72998046875 224 L 927.72998046875 234"/></g><g transform="translate(-118,-46) scale(1,1)"><path fill="#ffffff" stroke="none" d="M 937.72998046875 224 L 927.72998046875 234 L 927.72998046875 267 L 937.72998046875 257"/></g><g transform="translate(-118,-46) scale(1,1)"><path fill="none" stroke="#000000" d="M 880 234 L 927.72998046875 234 L 927.72998046875 267 L 880 267 L 880 234" stroke-miterlimit="10"/></g><g transform="translate(-118,-46) scale(1,1)"><path fill="none" stroke="#000000" d="M 880 234 L 890 224 L 937.72998046875 224 L 927.72998046875 234 L 880 234" stroke-miterlimit="10"/></g><g transform="translate(-118,-46) scale(1,1)"><path fill="none" stroke="#000000" d="M 937.72998046875 224 L 927.72998046875 234 L 927.72998046875 267 L 937.72998046875 257 L 937.72998046875 224" stroke-miterlimit="10"/></g><g transform="translate(-118,-46) scale(1,1)"><g><path fill="none" stroke="none"/><text fill="#000000" stroke="none" font-family="Arial" font-size="13px" font-style="normal" font-weight="bold" text-decoration="none" x="891.36181640625" y="253.5">view</text></g></g><g transform="translate(-118,-46) scale(1,1)"><path fill="none" stroke="#000000" d="M 456 224 L 456 136 L 288 136 L 288 232" stroke-miterlimit="10" stroke-dasharray="3"/></g><g transform="translate(-118,-46) scale(1,1)"><path fill="none" stroke="#000000" d="M 283.790482243984 221.83732514237585 L 288 232 L 292.209517756016 221.83732514237585" stroke-miterlimit="10"/></g><g transform="translate(-118,-46) scale(1,1)"><g><path fill="none" stroke="none"/><text fill="#000000" stroke="none" font-family="Arial" font-size="13px" font-style="normal" font-weight="normal" text-decoration="none" x="344.5" y="172.5">«deploy»</text></g></g><g transform="translate(-118,-46) scale(1,1)"><path fill="none" stroke="#000000" d="M 648 224 L 648 136 L 288 136 L 288 232" stroke-miterlimit="10" stroke-dasharray="3"/></g><g transform="translate(-118,-46) scale(1,1)"><path fill="none" stroke="#000000" d="M 283.790482243984 221.83732514237585 L 288 232 L 292.209517756016 221.83732514237585" stroke-miterlimit="10"/></g><g transform="translate(-118,-46) scale(1,1)"><g><path fill="none" stroke="none"/><text fill="#000000" stroke="none" font-family="Arial" font-size="13px" font-style="normal" font-weight="normal" text-decoration="none" x="510.5" y="171.5">«deploy»</text></g></g><g transform="translate(-118,-46) scale(1,1)"><path fill="none" stroke="#000000" d="M 909 224 L 909 136 L 288 136 L 288 232" stroke-miterlimit="10" stroke-dasharray="3"/></g><g transform="translate(-118,-46) scale(1,1)"><path fill="none" stroke="#000000" d="M 283.790482243984 221.83732514237585 L 288 232 L 292.209517756016 221.83732514237585" stroke-miterlimit="10"/></g><g transform="translate(-118,-46) scale(1,1)"><g><path fill="none" stroke="none"/><text fill="#000000" stroke="none" font-family="Arial" font-size="13px" font-style="normal" font-weight="normal" text-decoration="none" x="770.5" y="171.5">«deploy»</text></g></g><g transform="translate(-118,-46) scale(1,1)"><path fill="#C0C0C0" stroke="none" d="M 447.054052734375 343 L 474.494052734375 343 L 486.25405273437497 354.76 L 486.25405273437497 392 L 447.054052734375 392" opacity="0.2"/></g><g transform="translate(-118,-46) scale(1,1)"><path fill="#ffffff" stroke="none" d="M 440.054052734375 336 L 467.49405273437503 336 L 479.254052734375 347.76 L 479.254052734375 385 L 440.054052734375 385"/></g><g transform="translate(-118,-46) scale(1,1)"><path fill="none" stroke="#000000" d="M 440.054052734375 336 L 467.49405273437503 336 L 479.254052734375 347.76 L 479.254052734375 385 L 440.054052734375 385 L 440.054052734375 336" stroke-miterlimit="10"/></g><g transform="translate(-118,-46) scale(1,1)"><path fill="none" stroke="#000000" d="M 467.49405273437503 336 L 467.49405273437503 347.76 L 479.254052734375 347.76 L 467.49405273437503 336" stroke-miterlimit="10"/></g><g transform="translate(-118,-46) scale(1,1)"><g><path fill="none" stroke="none"/><text fill="#000000" stroke="none" font-family="Arial" font-size="13px" font-style="normal" font-weight="bold" text-decoration="none" x="393.530517578125" y="404.5">PackageController.php</text></g></g><g transform="translate(-118,-46) scale(1,1)"><path fill="#C0C0C0" stroke="none" d="M 626.77451171875 327 L 654.21451171875 327 L 665.97451171875 338.76 L 665.97451171875 376 L 626.77451171875 376" opacity="0.2"/></g><g transform="translate(-118,-46) scale(1,1)"><path fill="#ffffff" stroke="none" d="M 619.77451171875 320 L 647.21451171875 320 L 658.97451171875 331.76 L 658.97451171875 369 L 619.77451171875 369"/></g><g transform="translate(-118,-46) scale(1,1)"><path fill="none" stroke="#000000" d="M 619.77451171875 320 L 647.21451171875 320 L 658.97451171875 331.76 L 658.97451171875 369 L 619.77451171875 369 L 619.77451171875 320" stroke-miterlimit="10"/></g><g transform="translate(-118,-46) scale(1,1)"><path fill="none" stroke="#000000" d="M 647.21451171875 320 L 647.21451171875 331.76 L 658.97451171875 331.76 L 647.21451171875 320" stroke-miterlimit="10"/></g><g transform="translate(-118,-46) scale(1,1)"><g><path fill="none" stroke="none"/><text fill="#000000" stroke="none" font-family="Arial" font-size="13px" font-style="normal" font-weight="bold" text-decoration="none" x="583.724609375" y="388.5">PackageModel.php</text></g></g><g transform="translate(-118,-46) scale(1,1)"><path fill="#C0C0C0" stroke="none" d="M 894.810400390625 351 L 922.250400390625 351 L 934.010400390625 362.76 L 934.010400390625 400 L 894.810400390625 400" opacity="0.2"/></g><g transform="translate(-118,-46) scale(1,1)"><path fill="#ffffff" stroke="none" d="M 887.810400390625 344 L 915.250400390625 344 L 927.010400390625 355.76 L 927.010400390625 393 L 887.810400390625 393"/></g><g transform="translate(-118,-46) scale(1,1)"><path fill="none" stroke="#000000" d="M 887.810400390625 344 L 915.250400390625 344 L 927.010400390625 355.76 L 927.010400390625 393 L 887.810400390625 393 L 887.810400390625 344" stroke-miterlimit="10"/></g><g transform="translate(-118,-46) scale(1,1)"><path fill="none" stroke="#000000" d="M 915.250400390625 344 L 915.250400390625 355.76 L 927.010400390625 355.76 L 915.250400390625 344" stroke-miterlimit="10"/></g><g transform="translate(-118,-46) scale(1,1)"><g><path fill="none" stroke="none"/><text fill="#000000" stroke="none" font-family="Arial" font-size="13px" font-style="normal" font-weight="bold" text-decoration="none" x="855.37548828125" y="412.5">PackageView.php</text></g></g><g transform="translate(-118,-46) scale(1,1)"><path fill="#C0C0C0" stroke="none" d="M 629.869482421875 487 L 657.309482421875 487 L 669.069482421875 498.76 L 669.069482421875 536 L 629.869482421875 536" opacity="0.2"/></g><g transform="translate(-118,-46) scale(1,1)"><path fill="#ffffff" stroke="none" d="M 622.869482421875 480 L 650.309482421875 480 L 662.069482421875 491.76 L 662.069482421875 529 L 622.869482421875 529"/></g><g transform="translate(-118,-46) scale(1,1)"><path fill="none" stroke="#000000" d="M 622.869482421875 480 L 650.309482421875 480 L 662.069482421875 491.76 L 662.069482421875 529 L 622.869482421875 529 L 622.869482421875 480" stroke-miterlimit="10"/></g><g transform="translate(-118,-46) scale(1,1)"><path fill="none" stroke="#000000" d="M 650.309482421875 480 L 650.309482421875 491.76 L 662.069482421875 491.76 L 650.309482421875 480" stroke-miterlimit="10"/></g><g transform="translate(-118,-46) scale(1,1)"><g><path fill="none" stroke="none"/><text fill="#000000" stroke="none" font-family="Arial" font-size="13px" font-style="normal" font-weight="bold" text-decoration="none" x="561.52734375" y="548.5">PackageModelInterface.php</text></g></g><g transform="translate(-118,-46) scale(1,1)"><path fill="none" stroke="#000000" d="M 458 335 L 456 269" stroke-miterlimit="10" stroke-dasharray="3"/></g><g transform="translate(-118,-46) scale(1,1)"><path fill="none" stroke="#000000" d="M 460.51540488725317 279.0305093940522 L 456 269 L 452.1002322042899 279.2855146268693" stroke-miterlimit="10"/></g><g transform="translate(-118,-46) scale(1,1)"><g><path fill="none" stroke="none"/><text fill="#000000" stroke="none" font-family="Arial" font-size="13px" font-style="normal" font-weight="normal" text-decoration="none" x="400.5" y="308.5">«deploy»</text></g></g><g transform="translate(-118,-46) scale(1,1)"><path fill="none" stroke="#000000" d="M 704 359 L 760 360 L 760 248 L 676 247" stroke-miterlimit="10" stroke-dasharray="3"/></g><g transform="translate(-118,-46) scale(1,1)"><path fill="none" stroke="#000000" d="M 686.2120645458513 242.91175615803468 L 676 247 L 686.111845034084 251.33019514648834" stroke-miterlimit="10"/></g><g transform="translate(-118,-46) scale(1,1)"><g><path fill="none" stroke="none"/><text fill="#000000" stroke="none" font-family="Arial" font-size="13px" font-style="normal" font-weight="normal" text-decoration="none" x="703.5" y="309.5">«deploy»</text></g></g><g transform="translate(-118,-46) scale(1,1)"><path fill="none" stroke="#000000" d="M 734 513 L 760 512 L 760 248 L 676 247" stroke-miterlimit="10" stroke-dasharray="3"/></g><g transform="translate(-118,-46) scale(1,1)"><path fill="none" stroke="#000000" d="M 686.2120645458513 242.91175615803468 L 676 247 L 686.111845034084 251.33019514648834" stroke-miterlimit="10"/></g><g transform="translate(-118,-46) scale(1,1)"><g><path fill="none" stroke="none"/><text fill="#000000" stroke="none" font-family="Arial" font-size="13px" font-style="normal" font-weight="normal" text-decoration="none" x="702.5" y="444.5">«deploy»</text></g></g><g transform="translate(-118,-46) scale(1,1)"><path fill="none" stroke="#000000" d="M 908 343 L 909 269" stroke-miterlimit="10" stroke-dasharray="3"/></g><g transform="translate(-118,-46) scale(1,1)"><path fill="none" stroke="#000000" d="M 913.0718125418456 279.21862723774916 L 909 269 L 904.6535456458295 279.1048668742895" stroke-miterlimit="10"/></g><g transform="translate(-118,-46) scale(1,1)"><g><path fill="none" stroke="none"/><text fill="#000000" stroke="none" font-family="Arial" font-size="13px" font-style="normal" font-weight="normal" text-decoration="none" x="851.5" y="311.5">«deploy»</text></g></g><g transform="translate(-118,-46) scale(1,1)"><path fill="#C0C0C0" stroke="none" d="M 431 633 L 508 633 L 508 686 L 431 686" opacity="0.2"/></g><g transform="translate(-118,-46) scale(1,1)"><path fill="#C0C0C0" stroke="none" d="M 431 633 L 441 623 L 518 623 L 508 633" opacity="0.2"/></g><g transform="translate(-118,-46) scale(1,1)"><path fill="#C0C0C0" stroke="none" d="M 518 623 L 508 633 L 508 686 L 518 676" opacity="0.2"/></g><g transform="translate(-118,-46) scale(1,1)"><path fill="#ffffff" stroke="none" d="M 424 626 L 501 626 L 501 679 L 424 679"/></g><g transform="translate(-118,-46) scale(1,1)"><path fill="#ffffff" stroke="none" d="M 424 626 L 434 616 L 511 616 L 501 626"/></g><g transform="translate(-118,-46) scale(1,1)"><path fill="#ffffff" stroke="none" d="M 511 616 L 501 626 L 501 679 L 511 669"/></g><g transform="translate(-118,-46) scale(1,1)"><path fill="none" stroke="#000000" d="M 424 626 L 501 626 L 501 679 L 424 679 L 424 626" stroke-miterlimit="10"/></g><g transform="translate(-118,-46) scale(1,1)"><path fill="none" stroke="#000000" d="M 424 626 L 434 616 L 511 616 L 501 626 L 424 626" stroke-miterlimit="10"/></g><g transform="translate(-118,-46) scale(1,1)"><path fill="none" stroke="#000000" d="M 511 616 L 501 626 L 501 679 L 511 669 L 511 616" stroke-miterlimit="10"/></g><g transform="translate(-118,-46) scale(1,1)"><g><path fill="none" stroke="none"/><text fill="#000000" stroke="none" font-family="Arial" font-size="13px" font-style="normal" font-weight="bold" text-decoration="none" x="451.08544921875" y="645.5">mvc</text></g></g><g transform="translate(-118,-46) scale(1,1)"><path fill="#C0C0C0" stroke="none" d="M 616.974951171875 623 L 644.414951171875 623 L 656.174951171875 634.76 L 656.174951171875 672 L 616.974951171875 672" opacity="0.2"/></g><g transform="translate(-118,-46) scale(1,1)"><path fill="#ffffff" stroke="none" d="M 609.974951171875 616 L 637.414951171875 616 L 649.174951171875 627.76 L 649.174951171875 665 L 609.974951171875 665"/></g><g transform="translate(-118,-46) scale(1,1)"><path fill="none" stroke="#000000" d="M 609.974951171875 616 L 637.414951171875 616 L 649.174951171875 627.76 L 649.174951171875 665 L 609.974951171875 665 L 609.974951171875 616" stroke-miterlimit="10"/></g><g transform="translate(-118,-46) scale(1,1)"><path fill="none" stroke="#000000" d="M 637.414951171875 616 L 637.414951171875 627.76 L 649.174951171875 627.76 L 637.414951171875 616" stroke-miterlimit="10"/></g><g transform="translate(-118,-46) scale(1,1)"><g><path fill="none" stroke="none"/><text fill="#000000" stroke="none" font-family="Arial" font-size="13px" font-style="normal" font-weight="bold" text-decoration="none" x="584.052734375" y="684.5">AbstractSubject</text></g></g><g transform="translate(-118,-46) scale(1,1)"><path fill="#C0C0C0" stroke="none" d="M 751.540380859375 623 L 778.980380859375 623 L 790.740380859375 634.76 L 790.740380859375 672 L 751.540380859375 672" opacity="0.2"/></g><g transform="translate(-118,-46) scale(1,1)"><path fill="#ffffff" stroke="none" d="M 744.540380859375 616 L 771.980380859375 616 L 783.740380859375 627.76 L 783.740380859375 665 L 744.540380859375 665"/></g><g transform="translate(-118,-46) scale(1,1)"><path fill="none" stroke="#000000" d="M 744.540380859375 616 L 771.980380859375 616 L 783.740380859375 627.76 L 783.740380859375 665 L 744.540380859375 665 L 744.540380859375 616" stroke-miterlimit="10"/></g><g transform="translate(-118,-46) scale(1,1)"><path fill="none" stroke="#000000" d="M 771.980380859375 616 L 771.980380859375 627.76 L 783.740380859375 627.76 L 771.980380859375 616" stroke-miterlimit="10"/></g><g transform="translate(-118,-46) scale(1,1)"><g><path fill="none" stroke="none"/><text fill="#000000" stroke="none" font-family="Arial" font-size="13px" font-style="normal" font-weight="bold" text-decoration="none" x="712.1181640625" y="684.5">ObserverInterface</text></g></g><g transform="translate(-118,-46) scale(1,1)"><path fill="#C0C0C0" stroke="none" d="M 890.47177734375 623 L 917.91177734375 623 L 929.67177734375 634.76 L 929.67177734375 672 L 890.47177734375 672" opacity="0.2"/></g><g transform="translate(-118,-46) scale(1,1)"><path fill="#ffffff" stroke="none" d="M 883.47177734375 616 L 910.91177734375 616 L 922.67177734375 627.76 L 922.67177734375 665 L 883.47177734375 665"/></g><g transform="translate(-118,-46) scale(1,1)"><path fill="none" stroke="#000000" d="M 883.47177734375 616 L 910.91177734375 616 L 922.67177734375 627.76 L 922.67177734375 665 L 883.47177734375 665 L 883.47177734375 616" stroke-miterlimit="10"/></g><g transform="translate(-118,-46) scale(1,1)"><path fill="none" stroke="#000000" d="M 910.91177734375 616 L 910.91177734375 627.76 L 922.67177734375 627.76 L 910.91177734375 616" stroke-miterlimit="10"/></g><g transform="translate(-118,-46) scale(1,1)"><g><path fill="none" stroke="none"/><text fill="#000000" stroke="none" font-family="Arial" font-size="13px" font-style="normal" font-weight="bold" text-decoration="none" x="856.09912109375" y="684.5">SubjectInterface</text></g></g><g transform="translate(-118,-46) scale(1,1)"><path fill="#C0C0C0" stroke="none" d="M 458.2681640625 807 L 485.7081640625 807 L 497.46816406249997 818.76 L 497.46816406249997 856 L 458.2681640625 856" opacity="0.2"/></g><g transform="translate(-118,-46) scale(1,1)"><path fill="#ffffff" stroke="none" d="M 451.2681640625 800 L 478.70816406250003 800 L 490.4681640625 811.76 L 490.4681640625 849 L 451.2681640625 849"/></g><g transform="translate(-118,-46) scale(1,1)"><path fill="none" stroke="#000000" d="M 451.2681640625 800 L 478.70816406250003 800 L 490.4681640625 811.76 L 490.4681640625 849 L 451.2681640625 849 L 451.2681640625 800" stroke-miterlimit="10"/></g><g transform="translate(-118,-46) scale(1,1)"><path fill="none" stroke="#000000" d="M 478.70816406250003 800 L 478.70816406250003 811.76 L 490.4681640625 811.76 L 478.70816406250003 800" stroke-miterlimit="10"/></g><g transform="translate(-118,-46) scale(1,1)"><g><path fill="none" stroke="none"/><text fill="#000000" stroke="none" font-family="Arial" font-size="13px" font-style="normal" font-weight="bold" text-decoration="none" x="449.543212890625" y="868.5">api.php</text></g></g><g transform="translate(-118,-46) scale(1,1)"><path fill="none" stroke="#000000" d="M 471 799 L 472 768 L 296 768 L 298 799" stroke-miterlimit="10" stroke-dasharray="3"/></g><g transform="translate(-118,-46) scale(1,1)"><path fill="none" stroke="#000000" d="M 293.14491953483304 789.1294278951647 L 298 799 L 301.54648814939395 788.5873912103542" stroke-miterlimit="10"/></g><g transform="translate(-118,-46) scale(1,1)"><g><path fill="none" stroke="none"/><text fill="#000000" stroke="none" font-family="Arial" font-size="13px" font-style="normal" font-weight="normal" text-decoration="none" x="355.5" y="788.5">«deploy»</text></g></g><g transform="translate(-118,-46) scale(1,1)"><path fill="#C0C0C0" stroke="none" d="M 255 937 L 340 937 L 340 1000 L 255 1000" opacity="0.2"/></g><g transform="translate(-118,-46) scale(1,1)"><path fill="#C0C0C0" stroke="none" d="M 255 937 L 265 927 L 350 927 L 340 937" opacity="0.2"/></g><g transform="translate(-118,-46) scale(1,1)"><path fill="#C0C0C0" stroke="none" d="M 350 927 L 340 937 L 340 1000 L 350 990" opacity="0.2"/></g><g transform="translate(-118,-46) scale(1,1)"><path fill="#ffffff" stroke="none" d="M 248 930 L 333 930 L 333 993 L 248 993"/></g><g transform="translate(-118,-46) scale(1,1)"><path fill="#ffffff" stroke="none" d="M 248 930 L 258 920 L 343 920 L 333 930"/></g><g transform="translate(-118,-46) scale(1,1)"><path fill="#ffffff" stroke="none" d="M 343 920 L 333 930 L 333 993 L 343 983"/></g><g transform="translate(-118,-46) scale(1,1)"><path fill="none" stroke="#000000" d="M 248 930 L 333 930 L 333 993 L 248 993 L 248 930" stroke-miterlimit="10"/></g><g transform="translate(-118,-46) scale(1,1)"><path fill="none" stroke="#000000" d="M 248 930 L 258 920 L 343 920 L 333 930 L 248 930" stroke-miterlimit="10"/></g><g transform="translate(-118,-46) scale(1,1)"><path fill="none" stroke="#000000" d="M 343 920 L 333 930 L 333 993 L 343 983 L 343 920" stroke-miterlimit="10"/></g><g transform="translate(-118,-46) scale(1,1)"><g><path fill="none" stroke="none"/><text fill="#000000" stroke="none" font-family="Arial" font-size="13px" font-style="normal" font-weight="bold" text-decoration="none" x="282.325927734375" y="949.5">bin</text></g></g><g transform="translate(-118,-46) scale(1,1)"><path fill="#C0C0C0" stroke="none" d="M 623 937 L 729.9345703125 937 L 729.9345703125 1000 L 623 1000" opacity="0.2"/></g><g transform="translate(-118,-46) scale(1,1)"><path fill="#C0C0C0" stroke="none" d="M 623 937 L 633 927 L 739.9345703125 927 L 729.9345703125 937" opacity="0.2"/></g><g transform="translate(-118,-46) scale(1,1)"><path fill="#C0C0C0" stroke="none" d="M 739.9345703125 927 L 729.9345703125 937 L 729.9345703125 1000 L 739.9345703125 990" opacity="0.2"/></g><g transform="translate(-118,-46) scale(1,1)"><path fill="#ffffff" stroke="none" d="M 616 930 L 722.9345703125 930 L 722.9345703125 993 L 616 993"/></g><g transform="translate(-118,-46) scale(1,1)"><path fill="#ffffff" stroke="none" d="M 616 930 L 626 920 L 732.9345703125 920 L 722.9345703125 930"/></g><g transform="translate(-118,-46) scale(1,1)"><path fill="#ffffff" stroke="none" d="M 732.9345703125 920 L 722.9345703125 930 L 722.9345703125 993 L 732.9345703125 983"/></g><g transform="translate(-118,-46) scale(1,1)"><path fill="none" stroke="#000000" d="M 616 930 L 722.9345703125 930 L 722.9345703125 993 L 616 993 L 616 930" stroke-miterlimit="10"/></g><g transform="translate(-118,-46) scale(1,1)"><path fill="none" stroke="#000000" d="M 616 930 L 626 920 L 732.9345703125 920 L 722.9345703125 930 L 616 930" stroke-miterlimit="10"/></g><g transform="translate(-118,-46) scale(1,1)"><path fill="none" stroke="#000000" d="M 732.9345703125 920 L 722.9345703125 930 L 722.9345703125 993 L 732.9345703125 983 L 732.9345703125 920" stroke-miterlimit="10"/></g><g transform="translate(-118,-46) scale(1,1)"><g><path fill="none" stroke="none"/><text fill="#000000" stroke="none" font-family="Arial" font-size="13px" font-style="normal" font-weight="bold" text-decoration="none" x="641.42822265625" y="949.5">composer</text></g></g><g transform="translate(-118,-46) scale(1,1)"><path fill="#C0C0C0" stroke="none" d="M 255 1025 L 340 1025 L 340 1088 L 255 1088" opacity="0.2"/></g><g transform="translate(-118,-46) scale(1,1)"><path fill="#C0C0C0" stroke="none" d="M 255 1025 L 265 1015 L 350 1015 L 340 1025" opacity="0.2"/></g><g transform="translate(-118,-46) scale(1,1)"><path fill="#C0C0C0" stroke="none" d="M 350 1015 L 340 1025 L 340 1088 L 350 1078" opacity="0.2"/></g><g transform="translate(-118,-46) scale(1,1)"><path fill="#ffffff" stroke="none" d="M 248 1018 L 333 1018 L 333 1081 L 248 1081"/></g><g transform="translate(-118,-46) scale(1,1)"><path fill="#ffffff" stroke="none" d="M 248 1018 L 258 1008 L 343 1008 L 333 1018"/></g><g transform="translate(-118,-46) scale(1,1)"><path fill="#ffffff" stroke="none" d="M 343 1008 L 333 1018 L 333 1081 L 343 1071"/></g><g transform="translate(-118,-46) scale(1,1)"><path fill="none" stroke="#000000" d="M 248 1018 L 333 1018 L 333 1081 L 248 1081 L 248 1018" stroke-miterlimit="10"/></g><g transform="translate(-118,-46) scale(1,1)"><path fill="none" stroke="#000000" d="M 248 1018 L 258 1008 L 343 1008 L 333 1018 L 248 1018" stroke-miterlimit="10"/></g><g transform="translate(-118,-46) scale(1,1)"><path fill="none" stroke="#000000" d="M 343 1008 L 333 1018 L 333 1081 L 343 1071 L 343 1008" stroke-miterlimit="10"/></g><g transform="translate(-118,-46) scale(1,1)"><g><path fill="none" stroke="none"/><text fill="#000000" stroke="none" font-family="Arial" font-size="13px" font-style="normal" font-weight="bold" text-decoration="none" x="267.87548828125" y="1037.5">doctrine</text></g></g><g transform="translate(-118,-46) scale(1,1)"><path fill="#C0C0C0" stroke="none" d="M 879 937 L 985.9345703125 937 L 985.9345703125 1000 L 879 1000" opacity="0.2"/></g><g transform="translate(-118,-46) scale(1,1)"><path fill="#C0C0C0" stroke="none" d="M 879 937 L 889 927 L 995.9345703125 927 L 985.9345703125 937" opacity="0.2"/></g><g transform="translate(-118,-46) scale(1,1)"><path fill="#C0C0C0" stroke="none" d="M 995.9345703125 927 L 985.9345703125 937 L 985.9345703125 1000 L 995.9345703125 990" opacity="0.2"/></g><g transform="translate(-118,-46) scale(1,1)"><path fill="#ffffff" stroke="none" d="M 872 930 L 978.9345703125 930 L 978.9345703125 993 L 872 993"/></g><g transform="translate(-118,-46) scale(1,1)"><path fill="#ffffff" stroke="none" d="M 872 930 L 882 920 L 988.9345703125 920 L 978.9345703125 930"/></g><g transform="translate(-118,-46) scale(1,1)"><path fill="#ffffff" stroke="none" d="M 988.9345703125 920 L 978.9345703125 930 L 978.9345703125 993 L 988.9345703125 983"/></g><g transform="translate(-118,-46) scale(1,1)"><path fill="none" stroke="#000000" d="M 872 930 L 978.9345703125 930 L 978.9345703125 993 L 872 993 L 872 930" stroke-miterlimit="10"/></g><g transform="translate(-118,-46) scale(1,1)"><path fill="none" stroke="#000000" d="M 872 930 L 882 920 L 988.9345703125 920 L 978.9345703125 930 L 872 930" stroke-miterlimit="10"/></g><g transform="translate(-118,-46) scale(1,1)"><path fill="none" stroke="#000000" d="M 988.9345703125 920 L 978.9345703125 930 L 978.9345703125 993 L 988.9345703125 983 L 988.9345703125 920" stroke-miterlimit="10"/></g><g transform="translate(-118,-46) scale(1,1)"><g><path fill="none" stroke="none"/><text fill="#000000" stroke="none" font-family="Arial" font-size="13px" font-style="normal" font-weight="bold" text-decoration="none" x="902.128662109375" y="949.5">myclabs</text></g></g><g transform="translate(-118,-46) scale(1,1)"><path fill="#C0C0C0" stroke="none" d="M 359 937 L 465.9345703125 937 L 465.9345703125 1000 L 359 1000" opacity="0.2"/></g><g transform="translate(-118,-46) scale(1,1)"><path fill="#C0C0C0" stroke="none" d="M 359 937 L 369 927 L 475.9345703125 927 L 465.9345703125 937" opacity="0.2"/></g><g transform="translate(-118,-46) scale(1,1)"><path fill="#C0C0C0" stroke="none" d="M 475.9345703125 927 L 465.9345703125 937 L 465.9345703125 1000 L 475.9345703125 990" opacity="0.2"/></g><g transform="translate(-118,-46) scale(1,1)"><path fill="#ffffff" stroke="none" d="M 352 930 L 458.9345703125 930 L 458.9345703125 993 L 352 993"/></g><g transform="translate(-118,-46) scale(1,1)"><path fill="#ffffff" stroke="none" d="M 352 930 L 362 920 L 468.9345703125 920 L 458.9345703125 930"/></g><g transform="translate(-118,-46) scale(1,1)"><path fill="#ffffff" stroke="none" d="M 468.9345703125 920 L 458.9345703125 930 L 458.9345703125 993 L 468.9345703125 983"/></g><g transform="translate(-118,-46) scale(1,1)"><path fill="none" stroke="#000000" d="M 352 930 L 458.9345703125 930 L 458.9345703125 993 L 352 993 L 352 930" stroke-miterlimit="10"/></g><g transform="translate(-118,-46) scale(1,1)"><path fill="none" stroke="#000000" d="M 352 930 L 362 920 L 468.9345703125 920 L 458.9345703125 930 L 352 930" stroke-miterlimit="10"/></g><g transform="translate(-118,-46) scale(1,1)"><path fill="none" stroke="#000000" d="M 468.9345703125 920 L 458.9345703125 930 L 458.9345703125 993 L 468.9345703125 983 L 468.9345703125 920" stroke-miterlimit="10"/></g><g transform="translate(-118,-46) scale(1,1)"><g><path fill="none" stroke="none"/><text fill="#000000" stroke="none" font-family="Arial" font-size="13px" font-style="normal" font-weight="bold" text-decoration="none" x="385.734130859375" y="949.5">phar-io</text></g></g><g transform="translate(-118,-46) scale(1,1)"><path fill="#C0C0C0" stroke="none" d="M 751 937 L 857.9345703125 937 L 857.9345703125 1000 L 751 1000" opacity="0.2"/></g><g transform="translate(-118,-46) scale(1,1)"><path fill="#C0C0C0" stroke="none" d="M 751 937 L 761 927 L 867.9345703125 927 L 857.9345703125 937" opacity="0.2"/></g><g transform="translate(-118,-46) scale(1,1)"><path fill="#C0C0C0" stroke="none" d="M 867.9345703125 927 L 857.9345703125 937 L 857.9345703125 1000 L 867.9345703125 990" opacity="0.2"/></g><g transform="translate(-118,-46) scale(1,1)"><path fill="#ffffff" stroke="none" d="M 744 930 L 850.9345703125 930 L 850.9345703125 993 L 744 993"/></g><g transform="translate(-118,-46) scale(1,1)"><path fill="#ffffff" stroke="none" d="M 744 930 L 754 920 L 860.9345703125 920 L 850.9345703125 930"/></g><g transform="translate(-118,-46) scale(1,1)"><path fill="#ffffff" stroke="none" d="M 860.9345703125 920 L 850.9345703125 930 L 850.9345703125 993 L 860.9345703125 983"/></g><g transform="translate(-118,-46) scale(1,1)"><path fill="none" stroke="#000000" d="M 744 930 L 850.9345703125 930 L 850.9345703125 993 L 744 993 L 744 930" stroke-miterlimit="10"/></g><g transform="translate(-118,-46) scale(1,1)"><path fill="none" stroke="#000000" d="M 744 930 L 754 920 L 860.9345703125 920 L 850.9345703125 930 L 744 930" stroke-miterlimit="10"/></g><g transform="translate(-118,-46) scale(1,1)"><path fill="none" stroke="#000000" d="M 860.9345703125 920 L 850.9345703125 930 L 850.9345703125 993 L 860.9345703125 983 L 860.9345703125 920" stroke-miterlimit="10"/></g><g transform="translate(-118,-46) scale(1,1)"><g><path fill="none" stroke="none"/><text fill="#000000" stroke="none" font-family="Arial" font-size="13px" font-style="normal" font-weight="bold" text-decoration="none" x="752.79736328125" y="949.5">phpdocumentor</text></g></g><g transform="translate(-118,-46) scale(1,1)"><path fill="#C0C0C0" stroke="none" d="M 367 1025 L 473.9345703125 1025 L 473.9345703125 1088 L 367 1088" opacity="0.2"/></g><g transform="translate(-118,-46) scale(1,1)"><path fill="#C0C0C0" stroke="none" d="M 367 1025 L 377 1015 L 483.9345703125 1015 L 473.9345703125 1025" opacity="0.2"/></g><g transform="translate(-118,-46) scale(1,1)"><path fill="#C0C0C0" stroke="none" d="M 483.9345703125 1015 L 473.9345703125 1025 L 473.9345703125 1088 L 483.9345703125 1078" opacity="0.2"/></g><g transform="translate(-118,-46) scale(1,1)"><path fill="#ffffff" stroke="none" d="M 360 1018 L 466.9345703125 1018 L 466.9345703125 1081 L 360 1081"/></g><g transform="translate(-118,-46) scale(1,1)"><path fill="#ffffff" stroke="none" d="M 360 1018 L 370 1008 L 476.9345703125 1008 L 466.9345703125 1018"/></g><g transform="translate(-118,-46) scale(1,1)"><path fill="#ffffff" stroke="none" d="M 476.9345703125 1008 L 466.9345703125 1018 L 466.9345703125 1081 L 476.9345703125 1071"/></g><g transform="translate(-118,-46) scale(1,1)"><path fill="none" stroke="#000000" d="M 360 1018 L 466.9345703125 1018 L 466.9345703125 1081 L 360 1081 L 360 1018" stroke-miterlimit="10"/></g><g transform="translate(-118,-46) scale(1,1)"><path fill="none" stroke="#000000" d="M 360 1018 L 370 1008 L 476.9345703125 1008 L 466.9345703125 1018 L 360 1018" stroke-miterlimit="10"/></g><g transform="translate(-118,-46) scale(1,1)"><path fill="none" stroke="#000000" d="M 476.9345703125 1008 L 466.9345703125 1018 L 466.9345703125 1081 L 476.9345703125 1071 L 476.9345703125 1008" stroke-miterlimit="10"/></g><g transform="translate(-118,-46) scale(1,1)"><g><path fill="none" stroke="none"/><text fill="#000000" stroke="none" font-family="Arial" font-size="13px" font-style="normal" font-weight="bold" text-decoration="none" x="389.392333984375" y="1037.5">phpspec</text></g></g><g transform="translate(-118,-46) scale(1,1)"><path fill="#C0C0C0" stroke="none" d="M 759 1025 L 865.9345703125 1025 L 865.9345703125 1088 L 759 1088" opacity="0.2"/></g><g transform="translate(-118,-46) scale(1,1)"><path fill="#C0C0C0" stroke="none" d="M 759 1025 L 769 1015 L 875.9345703125 1015 L 865.9345703125 1025" opacity="0.2"/></g><g transform="translate(-118,-46) scale(1,1)"><path fill="#C0C0C0" stroke="none" d="M 875.9345703125 1015 L 865.9345703125 1025 L 865.9345703125 1088 L 875.9345703125 1078" opacity="0.2"/></g><g transform="translate(-118,-46) scale(1,1)"><path fill="#ffffff" stroke="none" d="M 752 1018 L 858.9345703125 1018 L 858.9345703125 1081 L 752 1081"/></g><g transform="translate(-118,-46) scale(1,1)"><path fill="#ffffff" stroke="none" d="M 752 1018 L 762 1008 L 868.9345703125 1008 L 858.9345703125 1018"/></g><g transform="translate(-118,-46) scale(1,1)"><path fill="#ffffff" stroke="none" d="M 868.9345703125 1008 L 858.9345703125 1018 L 858.9345703125 1081 L 868.9345703125 1071"/></g><g transform="translate(-118,-46) scale(1,1)"><path fill="none" stroke="#000000" d="M 752 1018 L 858.9345703125 1018 L 858.9345703125 1081 L 752 1081 L 752 1018" stroke-miterlimit="10"/></g><g transform="translate(-118,-46) scale(1,1)"><path fill="none" stroke="#000000" d="M 752 1018 L 762 1008 L 868.9345703125 1008 L 858.9345703125 1018 L 752 1018" stroke-miterlimit="10"/></g><g transform="translate(-118,-46) scale(1,1)"><path fill="none" stroke="#000000" d="M 868.9345703125 1008 L 858.9345703125 1018 L 858.9345703125 1081 L 868.9345703125 1071 L 868.9345703125 1008" stroke-miterlimit="10"/></g><g transform="translate(-118,-46) scale(1,1)"><g><path fill="none" stroke="none"/><text fill="#000000" stroke="none" font-family="Arial" font-size="13px" font-style="normal" font-weight="bold" text-decoration="none" x="784.642333984375" y="1037.5">phpunit</text></g></g><g transform="translate(-118,-46) scale(1,1)"><path fill="#C0C0C0" stroke="none" d="M 495 937 L 601.9345703125 937 L 601.9345703125 1000 L 495 1000" opacity="0.2"/></g><g transform="translate(-118,-46) scale(1,1)"><path fill="#C0C0C0" stroke="none" d="M 495 937 L 505 927 L 611.9345703125 927 L 601.9345703125 937" opacity="0.2"/></g><g transform="translate(-118,-46) scale(1,1)"><path fill="#C0C0C0" stroke="none" d="M 611.9345703125 927 L 601.9345703125 937 L 601.9345703125 1000 L 611.9345703125 990" opacity="0.2"/></g><g transform="translate(-118,-46) scale(1,1)"><path fill="#ffffff" stroke="none" d="M 488 930 L 594.9345703125 930 L 594.9345703125 993 L 488 993"/></g><g transform="translate(-118,-46) scale(1,1)"><path fill="#ffffff" stroke="none" d="M 488 930 L 498 920 L 604.9345703125 920 L 594.9345703125 930"/></g><g transform="translate(-118,-46) scale(1,1)"><path fill="#ffffff" stroke="none" d="M 604.9345703125 920 L 594.9345703125 930 L 594.9345703125 993 L 604.9345703125 983"/></g><g transform="translate(-118,-46) scale(1,1)"><path fill="none" stroke="#000000" d="M 488 930 L 594.9345703125 930 L 594.9345703125 993 L 488 993 L 488 930" stroke-miterlimit="10"/></g><g transform="translate(-118,-46) scale(1,1)"><path fill="none" stroke="#000000" d="M 488 930 L 498 920 L 604.9345703125 920 L 594.9345703125 930 L 488 930" stroke-miterlimit="10"/></g><g transform="translate(-118,-46) scale(1,1)"><path fill="none" stroke="#000000" d="M 604.9345703125 920 L 594.9345703125 930 L 594.9345703125 993 L 604.9345703125 983 L 604.9345703125 920" stroke-miterlimit="10"/></g><g transform="translate(-118,-46) scale(1,1)"><g><path fill="none" stroke="none"/><text fill="#000000" stroke="none" font-family="Arial" font-size="13px" font-style="normal" font-weight="bold" text-decoration="none" x="532.937744140625" y="949.5">psr</text></g></g><g transform="translate(-118,-46) scale(1,1)"><path fill="#C0C0C0" stroke="none" d="M 503 1025 L 609.9345703125 1025 L 609.9345703125 1088 L 503 1088" opacity="0.2"/></g><g transform="translate(-118,-46) scale(1,1)"><path fill="#C0C0C0" stroke="none" d="M 503 1025 L 513 1015 L 619.9345703125 1015 L 609.9345703125 1025" opacity="0.2"/></g><g transform="translate(-118,-46) scale(1,1)"><path fill="#C0C0C0" stroke="none" d="M 619.9345703125 1015 L 609.9345703125 1025 L 609.9345703125 1088 L 619.9345703125 1078" opacity="0.2"/></g><g transform="translate(-118,-46) scale(1,1)"><path fill="#ffffff" stroke="none" d="M 496 1018 L 602.9345703125 1018 L 602.9345703125 1081 L 496 1081"/></g><g transform="translate(-118,-46) scale(1,1)"><path fill="#ffffff" stroke="none" d="M 496 1018 L 506 1008 L 612.9345703125 1008 L 602.9345703125 1018"/></g><g transform="translate(-118,-46) scale(1,1)"><path fill="#ffffff" stroke="none" d="M 612.9345703125 1008 L 602.9345703125 1018 L 602.9345703125 1081 L 612.9345703125 1071"/></g><g transform="translate(-118,-46) scale(1,1)"><path fill="none" stroke="#000000" d="M 496 1018 L 602.9345703125 1018 L 602.9345703125 1081 L 496 1081 L 496 1018" stroke-miterlimit="10"/></g><g transform="translate(-118,-46) scale(1,1)"><path fill="none" stroke="#000000" d="M 496 1018 L 506 1008 L 612.9345703125 1008 L 602.9345703125 1018 L 496 1018" stroke-miterlimit="10"/></g><g transform="translate(-118,-46) scale(1,1)"><path fill="none" stroke="#000000" d="M 612.9345703125 1008 L 602.9345703125 1018 L 602.9345703125 1081 L 612.9345703125 1071 L 612.9345703125 1008" stroke-miterlimit="10"/></g><g transform="translate(-118,-46) scale(1,1)"><g><path fill="none" stroke="none"/><text fill="#000000" stroke="none" font-family="Arial" font-size="13px" font-style="normal" font-weight="bold" text-decoration="none" x="522.142333984375" y="1037.5">sebastian</text></g></g><g transform="translate(-118,-46) scale(1,1)"><path fill="#C0C0C0" stroke="none" d="M 631 1025 L 737.9345703125 1025 L 737.9345703125 1088 L 631 1088" opacity="0.2"/></g><g transform="translate(-118,-46) scale(1,1)"><path fill="#C0C0C0" stroke="none" d="M 631 1025 L 641 1015 L 747.9345703125 1015 L 737.9345703125 1025" opacity="0.2"/></g><g transform="translate(-118,-46) scale(1,1)"><path fill="#C0C0C0" stroke="none" d="M 747.9345703125 1015 L 737.9345703125 1025 L 737.9345703125 1088 L 747.9345703125 1078" opacity="0.2"/></g><g transform="translate(-118,-46) scale(1,1)"><path fill="#ffffff" stroke="none" d="M 624 1018 L 730.9345703125 1018 L 730.9345703125 1081 L 624 1081"/></g><g transform="translate(-118,-46) scale(1,1)"><path fill="#ffffff" stroke="none" d="M 624 1018 L 634 1008 L 740.9345703125 1008 L 730.9345703125 1018"/></g><g transform="translate(-118,-46) scale(1,1)"><path fill="#ffffff" stroke="none" d="M 740.9345703125 1008 L 730.9345703125 1018 L 730.9345703125 1081 L 740.9345703125 1071"/></g><g transform="translate(-118,-46) scale(1,1)"><path fill="none" stroke="#000000" d="M 624 1018 L 730.9345703125 1018 L 730.9345703125 1081 L 624 1081 L 624 1018" stroke-miterlimit="10"/></g><g transform="translate(-118,-46) scale(1,1)"><path fill="none" stroke="#000000" d="M 624 1018 L 634 1008 L 740.9345703125 1008 L 730.9345703125 1018 L 624 1018" stroke-miterlimit="10"/></g><g transform="translate(-118,-46) scale(1,1)"><path fill="none" stroke="#000000" d="M 740.9345703125 1008 L 730.9345703125 1018 L 730.9345703125 1081 L 740.9345703125 1071 L 740.9345703125 1008" stroke-miterlimit="10"/></g><g transform="translate(-118,-46) scale(1,1)"><g><path fill="none" stroke="none"/><text fill="#000000" stroke="none" font-family="Arial" font-size="13px" font-style="normal" font-weight="bold" text-decoration="none" x="646.17822265625" y="1037.5">webmozart</text></g></g><g transform="translate(-118,-46) scale(1,1)"><path fill="#C0C0C0" stroke="none" d="M 910.36728515625 1015 L 937.80728515625 1015 L 949.56728515625 1026.76 L 949.56728515625 1064 L 910.36728515625 1064" opacity="0.2"/></g><g transform="translate(-118,-46) scale(1,1)"><path fill="#ffffff" stroke="none" d="M 903.36728515625 1008 L 930.80728515625 1008 L 942.56728515625 1019.76 L 942.56728515625 1057 L 903.36728515625 1057"/></g><g transform="translate(-118,-46) scale(1,1)"><path fill="none" stroke="#000000" d="M 903.36728515625 1008 L 930.80728515625 1008 L 942.56728515625 1019.76 L 942.56728515625 1057 L 903.36728515625 1057 L 903.36728515625 1008" stroke-miterlimit="10"/></g><g transform="translate(-118,-46) scale(1,1)"><path fill="none" stroke="#000000" d="M 930.80728515625 1008 L 930.80728515625 1019.76 L 942.56728515625 1019.76 L 930.80728515625 1008" stroke-miterlimit="10"/></g><g transform="translate(-118,-46) scale(1,1)"><g><path fill="none" stroke="none"/><text fill="#000000" stroke="none" font-family="Arial" font-size="13px" font-style="normal" font-weight="bold" text-decoration="none" x="885.37646484375" y="1076.5">autoload.php</text></g></g><g transform="translate(-118,-46) scale(1,1)"><path fill="none" stroke="#000000" d="M 256 272 L 224 272 L 224 638 L 248 638" stroke-miterlimit="10" stroke-dasharray="3"/></g><g transform="translate(-118,-46) scale(1,1)"><path fill="none" stroke="#000000" d="M 237.83732514237585 642.209517756016 L 248 638 L 237.83732514237585 633.790482243984" stroke-miterlimit="10"/></g><g transform="translate(-118,-46) scale(1,1)"><g><path fill="none" stroke="none"/><text fill="#000000" stroke="none" font-family="Arial" font-size="13px" font-style="normal" font-weight="normal" text-decoration="none" x="236.5" y="460.5">«use»</text></g></g><g transform="translate(-118,-46) scale(1,1)"><path fill="none" stroke="#000000" d="M 256 824 L 208 824 L 208 984 L 232 984" stroke-miterlimit="10" stroke-dasharray="3"/></g><g transform="translate(-118,-46) scale(1,1)"><path fill="none" stroke="#000000" d="M 221.83732514237585 988.209517756016 L 232 984 L 221.83732514237585 979.790482243984" stroke-miterlimit="10"/></g><g transform="translate(-118,-46) scale(1,1)"><g><path fill="none" stroke="none"/><text fill="#000000" stroke="none" font-family="Arial" font-size="13px" font-style="normal" font-weight="normal" text-decoration="none" x="167.5" y="908.5">«use»</text></g></g><g transform="translate(-118,-46) scale(1,1)"><path fill="none" stroke="#000000" d="M 256 816 L 208 816 L 208 256 L 256 256" stroke-miterlimit="10" stroke-dasharray="3"/></g><g transform="translate(-118,-46) scale(1,1)"><path fill="none" stroke="#000000" d="M 245.83732514237585 260.209517756016 L 256 256 L 245.83732514237585 251.790482243984" stroke-miterlimit="10"/></g><g transform="translate(-118,-46) scale(1,1)"><g><path fill="none" stroke="none"/><text fill="#000000" stroke="none" font-family="Arial" font-size="13px" font-style="normal" font-weight="normal" text-decoration="none" x="160.5" y="541.5">«use»</text></g></g><g transform="translate(-118,-46) scale(1,1)"><path fill="#e82929" stroke="none" d="M 589.5 696 L 930.5 696 Q 1016 696 1016 781.5 L 1016 786.5 Q 1016 872 930.5 872 L 589.5 872 Q 504 872 504 786.5 L 504 781.5 Q 504 696 589.5 696 Z"/></g><g transform="translate(-118,-46) scale(1,1)"><path fill="none" stroke="#000000" d="M 589.5 696 L 930.5 696 Q 1016 696 1016 781.5 L 1016 786.5 Q 1016 872 930.5 872 L 589.5 872 Q 504 872 504 786.5 L 504 781.5 Q 504 696 589.5 696 Z" stroke-miterlimit="10"/></g><g transform="translate(-118,-46) scale(1,1)"><path fill="none" stroke="#000000" d="M 456 616 L 456 592 L 304 592 L 304 616" stroke-miterlimit="10" stroke-dasharray="3"/></g><g transform="translate(-118,-46) scale(1,1)"><path fill="none" stroke="#000000" d="M 299.790482243984 605.8373251423759 L 304 616 L 308.209517756016 605.8373251423759" stroke-miterlimit="10"/></g><g transform="translate(-118,-46) scale(1,1)"><g><path fill="none" stroke="none"/><text fill="#000000" stroke="none" font-family="Arial" font-size="13px" font-style="normal" font-weight="normal" text-decoration="none" x="358.5" y="611.5">«deploy»</text></g></g><g transform="translate(-118,-46) scale(1,1)"><path fill="none" stroke="#000000" d="M 903 616 L 903 592 L 480 592 L 480 616" stroke-miterlimit="10" stroke-dasharray="3"/></g><g transform="translate(-118,-46) scale(1,1)"><path fill="none" stroke="#000000" d="M 475.790482243984 605.8373251423759 L 480 616 L 484.209517756016 605.8373251423759" stroke-miterlimit="10"/></g><g transform="translate(-118,-46) scale(1,1)"><g><path fill="none" stroke="none"/><text fill="#000000" stroke="none" font-family="Arial" font-size="13px" font-style="normal" font-weight="normal" text-decoration="none" x="798.5" y="611.5">«deploy»</text></g></g><g transform="translate(-118,-46) scale(1,1)"><path fill="none" stroke="#000000" d="M 637 616 L 637 592 L 480 592 L 480 616" stroke-miterlimit="10" stroke-dasharray="3"/></g><g transform="translate(-118,-46) scale(1,1)"><path fill="none" stroke="#000000" d="M 475.790482243984 605.8373251423759 L 480 616 L 484.209517756016 605.8373251423759" stroke-miterlimit="10"/></g><g transform="translate(-118,-46) scale(1,1)"><g><path fill="none" stroke="none"/><text fill="#000000" stroke="none" font-family="Arial" font-size="13px" font-style="normal" font-weight="normal" text-decoration="none" x="526.5" y="612.5">«deploy»</text></g></g><g transform="translate(-118,-46) scale(1,1)"><path fill="none" stroke="#000000" d="M 764 616 L 764 592 L 480 592 L 480 616" stroke-miterlimit="10" stroke-dasharray="3"/></g><g transform="translate(-118,-46) scale(1,1)"><path fill="none" stroke="#000000" d="M 475.790482243984 605.8373251423759 L 480 616 L 484.209517756016 605.8373251423759" stroke-miterlimit="10"/></g><g transform="translate(-118,-46) scale(1,1)"><g><path fill="none" stroke="none"/><text fill="#000000" stroke="none" font-family="Arial" font-size="13px" font-style="normal" font-weight="normal" text-decoration="none" x="670.5" y="611.5">«deploy»</text></g></g><g transform="translate(-118,-46) scale(1,1)"><g><path fill="none" stroke="none"/><text fill="#000000" stroke="none" font-family="Arial" font-size="18px" font-style="normal" font-weight="normal" text-decoration="none" x="549" y="743">     This API provide an universal package definition.</text></g></g><g transform="translate(-118,-46) scale(1,1)"><g><path fill="none" stroke="none"/></g></g><g transform="translate(-118,-46) scale(1,1)"><g><path fill="none" stroke="none"/><text fill="#000000" stroke="none" font-family="Arial" font-size="18px" font-style="normal" font-weight="normal" text-decoration="none" x="549" y="765">     For a "package" input; the API is going to find (using</text><text fill="#000000" stroke="none" font-family="Arial" font-size="18px" font-style="normal" font-weight="normal" text-decoration="none" x="549" y="783">github convention) the full library description,  checking</text><text fill="#000000" stroke="none" font-family="Arial" font-size="18px" font-style="normal" font-weight="normal" text-decoration="none" x="549" y="801">if it's tested and distributed, requesting all over the web</text><text fill="#000000" stroke="none" font-family="Arial" font-size="18px" font-style="normal" font-weight="normal" text-decoration="none" x="549" y="819">(travis, npm,packagist).</text></g></g></g></svg>